<svg viewBox="0 0 24 24" xmlns="http://www.w3.org/2000/svg">
  <g fill="currentColor" transform="translate(12, 12) scale(0.08) translate(-170.07, -170.15)">
    <path fill-rule="evenodd" clip-rule="evenodd" d="M202.51,202.88V122l-81.3,29.18v20.1l26.92-9.73v60.78 L202.51,202.88z M170.07,101.22c-38.07,0-68.92,30.86-68.92,68.93c0,38.07,30.85,68.94,68.92,68.94 c38.07,0,68.94-30.87,68.94-68.94C239.01,132.08,208.14,101.22,170.07,101.22z M170.07,89.38c44.63,0,80.8,36.17,80.8,80.78 c0,44.61-36.17,80.79-80.8,80.79c-44.61,0-80.78-36.19-80.78-80.79C89.29,125.54,125.46,89.38,170.07,89.38z" />
  </g>
</svg>
